<?xml version="1.0" encoding="utf-8"?>
<!-- Generator: Adobe Illustrator 22.0.1, SVG Export Plug-In . SVG Version: 6.00 Build 0)  -->
<svg version="1.1" id="Layer_1" xmlns="http://www.w3.org/2000/svg" xmlns:xlink="http://www.w3.org/1999/xlink" x="0px" y="0px"
	 viewBox="0 0 24 22" style="enable-background:new 0 0 24 22;" xml:space="preserve">
<style type="text/css">
	.st0{fill:#FFFFFF;}
</style>
<circle class="st0" cx="9" cy="19.6" r="2"/>
<circle class="st0" cx="17.7" cy="19.6" r="2"/>
<g>
	<path class="st0" d="M10.4,8.7h5.1c-0.3-0.6-0.6-1.3-0.6-2c-2.5,0-4.6,0-4.6,0s-0.7,0.2-0.7,1C9.7,8.4,10.4,8.7,10.4,8.7z"/>
	<path class="st0" d="M20.9,10.8L20.9,10.8C20.9,10.8,20.8,10.8,20.9,10.8C20.4,10.9,20,11,19.5,11s-0.9-0.1-1.4-0.2
		c-3.5,0-8.2,0-8.2,0s-0.6,0.2-0.6,0.9s0.6,1,0.6,1h10.3l0,0l-0.5,2H8.6L7.8,8.7l-0.3-2c0,0-0.2-1.8-0.3-2.6C7,3.2,5.2,2.3,1,0.3
		C0.1,0-0.7,1.8,1,2.7l3.3,1.4c0,0,0.7,0.4,0.8,1c0.1,0.6,1.4,10.3,1.4,10.3S6.6,17,7.8,17s11.4,0,12.4,0c1,0,1.2-1.1,1.2-1.1
		l2.5-7.3c0,0,0.2-0.7,0.1-1.3C23.6,9,22.4,10.3,20.9,10.8z"/>
</g>
<path class="st0" d="M22.2,5.5H22h-1.4c0-0.6,0-1.1,0-1.4c0-0.2,0-0.2,0-0.2s-0.2-0.6-0.9-0.6s-1,0.6-1,0.6v0.2v1.4h-1.4
	c-0.2,0-0.2,0-0.2,0s-0.6,0.2-0.6,0.9s0.6,1,0.6,1h0.2c0.5,0,1,0,1.4,0v1.4c0,0.2,0,0.2,0,0.2s0.2,0.6,0.9,0.6s1-0.6,1-0.6V8.8
	c0-0.5,0-1,0-1.4c0.6,0,1.1,0,1.4,0c0.2,0,0.2,0,0.2,0s0.6-0.2,0.6-0.9S22.2,5.5,22.2,5.5z"/>
</svg>
