<?xml version="1.0" encoding="utf-8"?>
<!-- Generator: Adobe Illustrator 23.0.0, SVG Export Plug-In . SVG Version: 6.00 Build 0)  -->
<svg version="1.1" id="Layer_1" xmlns="http://www.w3.org/2000/svg" xmlns:xlink="http://www.w3.org/1999/xlink" x="0px" y="0px"
	 viewBox="0 0 24 16" style="enable-background:new 0 0 24 16;" xml:space="preserve">
<style type="text/css">
	.st0{fill:#FF6550;}
</style>
<path class="st0" d="M2.8,6h5.7c0.3,0,0.6-0.2,0.6-0.6S8.7,4.8,8.5,4.8H2.8C2.5,4.8,2.2,5,2.2,5.4C2.2,5.7,2.5,6,2.8,6z"/>
<path class="st0" d="M4.7,12.2H3.9V11c0-0.4-0.3-0.6-0.6-0.6S2.8,10.7,2.8,11v1.7c0,0.4,0.3,0.6,0.6,0.6h1.4c0.4,0,0.6-0.3,0.6-0.6
	C5.3,12.5,5.1,12.2,4.7,12.2z"/>
<path class="st0" d="M7.2,9.7c0-0.4-0.3-0.6-0.6-0.6H0.9c-0.4,0-0.6,0.3-0.6,0.6s0.3,0.6,0.6,0.6h5.7C7,10.4,7.2,10,7.2,9.7z"/>
<path class="st0" d="M1.8,8.2h5.7c0.4,0,0.6-0.3,0.6-0.6C8.1,7.2,7.8,7,7.5,7H1.8C1.5,7,1.2,7.2,1.2,7.6C1.2,7.8,1.6,8.2,1.8,8.2z"
	/>
<path class="st0" d="M21.7,8.8V6.3c0-0.1-0.1-0.4-0.2-0.5l-1.4-1.3c-0.1-0.1-0.3-0.1-0.4-0.1h-2.5c-0.4,0-0.6,0.3-0.6,0.6v3.9
	c0,0.4,0.3,0.6,0.6,0.6h3.9C21.4,9.5,21.7,9.2,21.7,8.8z M17.8,8.2V5.5h1.6l1,0.9v1.8H17.8z"/>
<path class="st0" d="M7.9,11.6c-0.6,0-1.2,0.2-1.6,0.6c-0.4,0.4-0.6,0.9-0.6,1.6s0.2,1.2,0.6,1.6c0.4,0.4,1,0.6,1.6,0.6
	c1.2,0,2.2-1,2.2-2.3C10.1,12.5,9.2,11.6,7.9,11.6z M9,13.8c0,0.6-0.6,1.1-1.1,1.1c-0.6,0-1.1-0.4-1.1-1.1c0-0.5,0.5-1.1,1.1-1.1
	C8.4,12.7,9,13.2,9,13.8z"/>
<path class="st0" d="M23.6,5.1l-3.4-2.8c-0.1-0.1-0.3-0.1-0.4-0.1H16V0.6C16,0.3,15.8,0,15.4,0H3.3C3,0,2.7,0.3,2.7,0.6v3.5
	c0,0.4,0.3,0.6,0.6,0.6s0.5-0.3,0.5-0.6V1.2h10.8v10.9H11c-0.4,0-0.6,0.3-0.6,0.6c0,0.4,0.3,0.6,0.6,0.6h5.7c0.4,0,0.6-0.3,0.6-0.6
	c0-0.4-0.3-0.6-0.6-0.6h-0.9V3.4h3.7l3,2.5v6.3h-0.4c-0.4,0-0.6,0.3-0.6,0.6c0,0.1,0,0.1,0,0.1c-0.3-0.9-1.2-1.4-2.1-1.4
	c-0.6,0-1.2,0.2-1.6,0.6c-0.4,0.4-0.6,0.9-0.6,1.6s0.2,1.2,0.6,1.6c0.4,0.4,1,0.6,1.6,0.6c1.2,0,2.2-1,2.2-2.3c0-0.2,0-0.4-0.1-0.6
	c0.1,0.2,0.3,0.3,0.6,0.3h1c0.4,0,0.6-0.3,0.6-0.6v-7C23.8,5.5,23.8,5.2,23.6,5.1z M19.5,12.7c0.5,0,1.1,0.4,1.1,1
	c-0.1,0.6-0.5,1.1-1.1,1.1s-1.1-0.4-1.1-1.1C18.4,13.3,19,12.7,19.5,12.7z"/>
</svg>
