<?xml version="1.0" encoding="utf-8"?>
<!-- Generator: Adobe Illustrator 23.0.0, SVG Export Plug-In . SVG Version: 6.00 Build 0)  -->
<svg version="1.1" id="Layer_1" xmlns="http://www.w3.org/2000/svg" xmlns:xlink="http://www.w3.org/1999/xlink" x="0px" y="0px"
	 viewBox="0 0 24 24" style="enable-background:new 0 0 24 24;" xml:space="preserve">
<style type="text/css">
	.st0{fill:#FFFFFF;}
</style>
<g>
	<path class="st0" d="M7.6,7.6c0.3-0.3,0.3-0.7,0-1l-3-3c-0.3-0.3-0.7-0.3-1,0L3.1,4.1l4,4L7.6,7.6z"/>
	<path class="st0" d="M10.9,17.9l-4.7-4.6c-1.1-1.1-1.1-2.9-0.1-4.1l-4-4c-2,2.4-1.9,6,0.4,8.3l8.2,8c2.3,2.3,5.9,2.4,8.3,0.5l-4-4
		C13.8,19.1,12,19,10.9,17.9z"/>
	<path class="st0" d="M17.5,16.4c-0.3-0.3-0.7-0.3-1,0L16,16.9l4,4l0.5-0.4c0.3-0.3,0.3-0.7,0-1L17.5,16.4z"/>
	<path class="st0" d="M11.3,0.7c-0.4,0-0.7,0.3-0.7,0.7c0,0.4,0.3,0.7,0.7,0.7c5.8,0,10.5,4.7,10.5,10.5c0,0.4,0.3,0.7,0.7,0.7
		s0.7-0.3,0.7-0.7C23.3,6,18,0.7,11.3,0.7z"/>
	<path class="st0" d="M11.3,4.9c4.3,0,7.7,3.5,7.7,7.7c0,0.4,0.3,0.7,0.7,0.7c0.4,0,0.7-0.3,0.7-0.7c0.1-5-4-9.1-9.1-9.1
		c-0.4,0-0.7,0.3-0.7,0.7C10.6,4.6,10.9,4.9,11.3,4.9z"/>
	<path class="st0" d="M11.3,7.7c2.7,0,4.9,2.2,4.9,4.9c0,0.4,0.3,0.7,0.7,0.7c0.4,0,0.7-0.3,0.7-0.7c0.1-3.4-2.8-6.3-6.3-6.3
		c-0.4,0-0.7,0.3-0.7,0.7C10.6,7.4,10.9,7.7,11.3,7.7z"/>
	<path class="st0" d="M11.3,10.5c1.2,0,2.1,0.9,2.1,2.1c0,0.4,0.3,0.7,0.7,0.7c0.4,0,0.7-0.3,0.7-0.7c0.1-1.9-1.5-3.5-3.5-3.5
		c-0.4,0-0.7,0.3-0.7,0.7S10.9,10.5,11.3,10.5z"/>
</g>
</svg>
