<?xml version="1.0" encoding="utf-8"?>
<!-- Generator: Adobe Illustrator 23.0.0, SVG Export Plug-In . SVG Version: 6.00 Build 0)  -->
<svg version="1.1" id="Layer_1" xmlns="http://www.w3.org/2000/svg" xmlns:xlink="http://www.w3.org/1999/xlink" x="0px" y="0px"
	 viewBox="0 0 24 20" style="enable-background:new 0 0 24 20;" xml:space="preserve">
<style type="text/css">
	.st0{fill:#1B4A5B;}
</style>
<g>
	<path class="st0" d="M16.9,8.4H7.5V5.5C7.5,3,9.5,0.9,12,0.9s4.5,2.1,4.5,4.5c0,0.2,0.2,0.4,0.4,0.4s0.4-0.2,0.4-0.4
		c0-3-2.4-5.4-5.4-5.4S6.6,2.5,6.6,5.5v2.9c-0.9,0.2-1.6,1-1.6,2v7.4c0,1.2,0.9,2.1,2.1,2.1h9.9c1.2,0,2.1-0.9,2.1-2.1v-7.4
		C19,9.3,18.1,8.4,16.9,8.4z M18.2,17.8c0,0.7-0.6,1.2-1.2,1.2H7.1c-0.7,0-1.2-0.6-1.2-1.2v-7.4c0-0.7,0.6-1.2,1.2-1.2h9.9
		c0.7,0,1.2,0.6,1.2,1.2V17.8z"/>
	<path class="st0" d="M12,10.8c-1.2,0-2.1,0.9-2.1,2.1c0,1,0.7,1.8,1.6,2V17c0,0.2,0.2,0.4,0.4,0.4s0.4-0.2,0.4-0.4v-2.1
		c0.9-0.2,1.6-1,1.6-2C14.1,11.7,13.2,10.8,12,10.8z M12,14.1c-0.7,0-1.2-0.6-1.2-1.2s0.6-1.2,1.2-1.2s1.2,0.6,1.2,1.2
		S12.7,14.1,12,14.1z"/>
</g>
</svg>
