<?xml version="1.0" encoding="utf-8"?>
<!-- Generator: Adobe Illustrator 23.0.0, SVG Export Plug-In . SVG Version: 6.00 Build 0)  -->
<svg version="1.1" id="Layer_1" xmlns="http://www.w3.org/2000/svg" xmlns:xlink="http://www.w3.org/1999/xlink" x="0px" y="0px"
	 viewBox="0 0 24 20" style="enable-background:new 0 0 24 20;" xml:space="preserve">
<style type="text/css">
	.st0{fill:#1B4A5B;}
</style>
<g>
	<path class="st0" d="M21.1,10.1V7.3c0-1-0.7-1.7-1.7-1.8l-2.6-4.6c-0.2-0.4-0.6-0.7-1.1-0.8c-0.5-0.1-1-0.1-1.4,0.2L5.4,5.5H3.8
		C2.8,5.5,2,6.3,2,7.3v10.9c0,1,0.8,1.8,1.8,1.8h15.5c1,0,1.8-0.8,1.8-1.8v-2.8c0.5-0.2,0.9-0.7,0.9-1.3v-2.7
		C22,10.8,21.6,10.3,21.1,10.1z M18.4,5.5h-4l3-1.7L18.4,5.5z M16.9,2.9l-4.3,2.5h-1.8l5.7-3.3L16.9,2.9z M14.8,1
		c0.2-0.1,0.4-0.2,0.7-0.1C15.7,1,15.9,1.2,16,1.4l0,0L9,5.5H7.2L14.8,1z M20.2,18.2c0,0.5-0.4,0.9-0.9,0.9H3.8
		c-0.5,0-0.9-0.4-0.9-0.9V7.3c0-0.5,0.4-0.9,0.9-0.9h15.5c0.5,0,0.9,0.4,0.9,0.9V10h-2.7c-1.5,0-2.7,1.2-2.7,2.7s1.2,2.7,2.7,2.7
		h2.7V18.2L20.2,18.2z M21.1,14.1c0,0.3-0.2,0.5-0.5,0.5h-3.2c-1,0-1.8-0.8-1.8-1.8s0.8-1.8,1.8-1.8h3.2c0.3,0,0.5,0.2,0.5,0.5V14.1
		z"/>
	<path class="st0" d="M17.5,11.8c-0.5,0-0.9,0.4-0.9,0.9s0.4,0.9,0.9,0.9s0.9-0.4,0.9-0.9S18,11.8,17.5,11.8z"/>
</g>
</svg>
