<?xml version="1.0" encoding="utf-8"?>
<!-- Generator: Adobe Illustrator 23.0.0, SVG Export Plug-In . SVG Version: 6.00 Build 0)  -->
<svg version="1.1" id="Layer_1" xmlns="http://www.w3.org/2000/svg" xmlns:xlink="http://www.w3.org/1999/xlink" x="0px" y="0px"
	 viewBox="0 0 24 20" style="enable-background:new 0 0 24 20;" xml:space="preserve">
<style type="text/css">
	.st0{fill:#1B4A5B;}
</style>
<g>
	<path class="st0" d="M7,4.1c2.8,2.5,2.8,2.5,2.8,2.5c0.3,0.2,0.7,0.3,0.9,0.1c0.4-0.2,0.6-0.5,0.6-0.9V5.7c0.8,0.1,1.5,0.3,2.1,0.6
		c0.9,0.5,1.5,1.2,1.8,2.3c0.1,0.4,0.5,0.7,0.9,0.7c0.1,0,0.1,0,0.2,0h0.1c0.3,0,0.5-0.1,0.7-0.3c0.2-0.2,0.3-0.4,0.3-0.7
		c0-0.8-0.2-1.5-0.6-2.3c-0.6-1.3-1.6-2.4-3.1-3.2c-0.8-0.5-1.5-0.7-2.3-0.9V1c0-0.4-0.2-0.7-0.6-0.9C10.5,0,10.1,0.1,9.9,0.3
		L7.1,2.7C6.8,3,6.7,3.2,6.7,3.5C6.7,3.8,6.8,4,7,4.1L7,4.1z M10.9,2.5c0.1,0,0.1,0,0.2,0.1c0.8,0.3,1.5,0.5,2.2,0.9
		c1.3,0.8,2.2,1.7,2.7,2.8c0.3,0.6,0.5,1.2,0.5,1.9h-0.2C15.8,7,14.9,6,13.9,5.5C13,5,12,4.8,11,4.7l0,0c-0.1,0-0.3,0.1-0.4,0.1
		c-0.1,0.1-0.1,0.2-0.1,0.3v0.9L7.7,3.5C7.8,3.4,10.5,1,10.5,1v1C10.5,2.3,10.6,2.4,10.9,2.5z"/>
	<path class="st0" d="M22.9,13l-1.7-4.2c0-0.1-0.2-0.3-0.4-0.3h-1.7c-0.2,0-0.5,0.2-0.5,0.5s0.2,0.5,0.5,0.5h1.4
		c0.2,0.6,1.5,3.9,1.5,3.9c0,0.1,0,0.1,0,0.2l-0.1,0.1h-10c-0.1,0-0.1,0-0.2-0.1l-1.5-4.1H13c0.3,0,0.5-0.2,0.5-0.5S13.3,8.6,13,8.6
		H3.2C3,8.6,2.8,8.8,2.8,8.9c0,0-1.6,4.2-1.7,4.2c-0.1,0.3-0.1,0.7,0.1,1c0.2,0.3,0.6,0.5,0.9,0.5h0.7v4c0,0.8,0.7,1.4,1.4,1.4h15.6
		c0.8,0,1.4-0.7,1.4-1.4v-4h0.7c0.4,0,0.7-0.2,0.9-0.5C23,13.8,23,13.4,22.9,13z M2.2,13.6C2.1,13.6,2.1,13.6,2.2,13.6
		c-0.1-0.2-0.1-0.2-0.1-0.3l1.4-3.8h5.3l-1.5,4c0,0.1-0.1,0.1-0.2,0.1H2.2z M9.1,19H4.2c-0.3,0-0.5-0.2-0.5-0.5v-4h3.4
		c0.5,0,0.9-0.3,1-0.7l0.9-2.5v3.8v1.3v1.2v0.9V19z M20.3,18.5c0,0.3-0.2,0.5-0.5,0.5H10v-0.3v-0.9v-1.2v-1.3v-3.8l0.9,2.5
		c0.2,0.4,0.6,0.7,1,0.7h8.4L20.3,18.5L20.3,18.5z"/>
</g>
</svg>
