<?xml version="1.0" encoding="utf-8"?>
<!-- Generator: Adobe Illustrator 23.0.0, SVG Export Plug-In . SVG Version: 6.00 Build 0)  -->
<svg version="1.1" id="Layer_1" xmlns="http://www.w3.org/2000/svg" xmlns:xlink="http://www.w3.org/1999/xlink" x="0px" y="0px"
	 viewBox="0 0 25 36" style="enable-background:new 0 0 25 36;" xml:space="preserve">
<style type="text/css">
	.st0{fill:#FFFFFF;}
</style>
<g>
	<path class="st0" d="M24.8,8.4c-0.1-0.2-0.2-0.4-0.4-0.6l-7.6-7.6C16.8,0.1,16.6,0,16.4,0H4.8C2.3,0,0.3,2,0.3,4.5v27
		c0,2.5,2,4.5,4.5,4.5h7.7c0.4,0,0.6-0.3,0.6-0.6c0-0.4-0.3-0.6-0.6-0.6H4.8c-1.8,0-3.2-1.4-3.2-3.2v-27c0-1.8,1.4-3.2,3.2-3.2h11
		v3.1c0,2.5,2,4.5,4.5,4.5h3.1v14.9c0,0.4,0.3,0.6,0.6,0.6c0.4,0,0.6-0.3,0.6-0.6V8.8C24.7,8.7,24.8,8.6,24.8,8.4z M20.2,7.7
		c-1.8,0-3.2-1.4-3.2-3.2V2.3l5.4,5.4H20.2z"/>
	<path class="st0" d="M4.8,5.1h7.7c0.4,0,0.6-0.3,0.6-0.6c0-0.4-0.2-0.6-0.6-0.6H4.8c-0.4,0-0.6,0.3-0.6,0.6
		C4.2,4.9,4.5,5.1,4.8,5.1z"/>
	<path class="st0" d="M21.5,27.2l-3.8,3.7l-0.8-0.8c-0.3-0.3-0.7-0.3-0.9,0c-0.3,0.3-0.3,0.7,0,0.9l1,1c0,0.1,0.1,0.2,0.2,0.3
		c0.1,0.1,0.3,0.2,0.5,0.2c0,0,0,0,0,0c0,0,0,0,0.1,0c0.2,0,0.3-0.1,0.5-0.2c0,0,0-0.1,0-0.1l4.2-4.1c0.2-0.3,0.2-0.7-0.1-0.9
		C22.1,26.9,21.7,26.9,21.5,27.2z"/>
	<path class="st0" d="M4.8,12.8h15.4c0.4,0,0.6-0.3,0.6-0.6c0-0.3-0.2-0.6-0.6-0.6H4.8c-0.4,0-0.6,0.3-0.6,0.6
		C4.2,12.5,4.5,12.8,4.8,12.8z"/>
	<path class="st0" d="M4.8,16.6h15.4c0.4,0,0.6-0.3,0.6-0.6c0.1-0.3-0.2-0.6-0.6-0.6H4.8c-0.4,0-0.6,0.3-0.6,0.6
		C4.2,16.4,4.5,16.6,4.8,16.6z"/>
	<path class="st0" d="M4.8,20.5h15.4c0.4,0,0.6-0.3,0.6-0.6c0.1-0.3-0.2-0.6-0.6-0.6H4.8c-0.4,0-0.6,0.3-0.6,0.6
		C4.2,20.3,4.5,20.5,4.8,20.5z"/>
</g>
</svg>
