<?xml version="1.0" encoding="utf-8"?>
<!-- Generator: Adobe Illustrator 23.0.0, SVG Export Plug-In . SVG Version: 6.00 Build 0)  -->
<svg version="1.1" id="Слой_1" xmlns="http://www.w3.org/2000/svg" xmlns:xlink="http://www.w3.org/1999/xlink" x="0px" y="0px"
	 viewBox="0 0 128 128" style="enable-background:new 0 0 128 128;" xml:space="preserve">
<style type="text/css">
	.st0{fill:#FFFFFF;}
</style>
<g>
	<g>
		<path class="st0" d="M64.5,72c-19.1,0-34.6-15.5-34.6-34.6S45.4,2.8,64.5,2.8s34.6,15.5,34.6,34.6S83.6,72,64.5,72z M64.5,10.2
			c-15,0-27.2,12.2-27.2,27.2s12.2,27.2,27.2,27.2c15,0,27.2-12.2,27.2-27.2S79.5,10.2,64.5,10.2z"/>
	</g>
	<g>
		<path class="st0" d="M6.5,125.2c-2.1,0-3.7-1.7-3.7-3.7C2.8,97,30.4,77,64.2,77c15.6,0,30.5,4.2,41.9,11.9c1.7,1.1,2.2,3.5,1,5.2
			c-1.1,1.7-3.5,2.2-5.2,1c-10.2-6.9-23.6-10.6-37.8-10.6c-29.8,0-54,16.6-54,37.1C10.2,123.6,8.6,125.2,6.5,125.2z"/>
	</g>
	<g>
		<path class="st0" d="M111.4,101.5c-1,0-1.9-0.4-2.6-1.1c-0.7-0.7-1.1-1.7-1.1-2.6c0-1,0.4-1.9,1.1-2.6c1.4-1.4,3.9-1.4,5.3,0
			c0.7,0.7,1.1,1.7,1.1,2.6c0,1-0.4,1.9-1.1,2.6C113.3,101,112.4,101.5,111.4,101.5z"/>
	</g>
	<g>
		<path class="st0" d="M116.5,108.2c-1,0-1.9-0.4-2.6-1.1c-0.7-0.7-1.1-1.7-1.1-2.6c0-1,0.4-1.9,1.1-2.6c1.4-1.4,3.9-1.4,5.2,0
			c0.7,0.7,1.1,1.7,1.1,2.6c0,1-0.4,1.9-1.1,2.6C118.4,107.8,117.4,108.2,116.5,108.2z"/>
	</g>
	<g>
		<path class="st0" d="M121.5,124.9c-1,0-2-0.4-2.6-1.1c-0.7-0.7-1.1-1.7-1.1-2.6c0-1,0.4-1.9,1.1-2.6c1.4-1.4,3.9-1.4,5.3,0
			c0.7,0.7,1.1,1.7,1.1,2.6c0,1-0.4,1.9-1.1,2.6C123.4,124.5,122.5,124.9,121.5,124.9z"/>
	</g>
	<g>
		<path class="st0" d="M119.8,116.6c-1,0-1.9-0.4-2.6-1.1c-0.7-0.7-1.1-1.7-1.1-2.6c0-1,0.4-2,1.1-2.6c1.4-1.4,3.9-1.4,5.3,0
			c0.7,0.7,1.1,1.7,1.1,2.6c0,1-0.4,1.9-1.1,2.6C121.7,116.1,120.8,116.6,119.8,116.6z"/>
	</g>
</g>
</svg>
