<?xml version="1.0" encoding="utf-8"?>
<!-- Generator: Adobe Illustrator 16.0.0, SVG Export Plug-In . SVG Version: 6.00 Build 0)  -->
<!DOCTYPE svg PUBLIC "-//W3C//DTD SVG 1.1//EN" "http://www.w3.org/Graphics/SVG/1.1/DTD/svg11.dtd">
<svg version="1.1" id="Capa_1" xmlns="http://www.w3.org/2000/svg" xmlns:xlink="http://www.w3.org/1999/xlink" x="0px" y="0px"
	 width="20px" height="20px" viewBox="0 0 20 20" enable-background="new 0 0 20 20" xml:space="preserve">
<path fill="#26BC4E" d="M19.228,4.16c-0.022-1.195-0.109-1.935-0.109-1.935C12.781,2.071,10,0,10,0S7.218,2.071,0.882,2.225
	c0,0-0.088,0.739-0.109,1.935h0.025C0.901,5.852,1.842,13.837,10,20c8.158-6.163,9.1-14.148,9.203-15.84H19.228z"/>
<path fill="#FFFFFF" d="M4.899,10.644L7.996,8.78l1.517,2.875c0,0,0.664-2.148,2.432-4.486c1.77-2.338,3.634-3.254,3.634-3.254
	s-0.095,1.58-0.032,2.464C15.609,7.264,15.8,8.085,15.8,8.085s-1.833,0.822-3.729,3.128c-1.896,2.307-2.496,3.476-2.496,3.476
	s-1.169-1.58-2.37-2.527C6.005,11.213,4.899,10.644,4.899,10.644"/>
</svg>
